# --- HEADER ---
# MeshCount, ObjectCount
1 1

# --- MESHES ---
# VertexCount, FaceCount
8 12
# Vertices
-1.0 -1.0  1.0
 1.0 -1.0  1.0
 1.0  1.0  1.0
-1.0  1.0  1.0
-1.0 -1.0 -1.0
 1.0 -1.0 -1.0
 1.0  1.0 -1.0
-1.0  1.0 -1.0
# Faces
1 2 3
1 3 4
6 5 8
6 8 7
4 3 7
4 7 8
5 1 2
5 2 6
2 6 7
2 7 3
5 1 4
5 4 8

# --- OBJECTS ---
# MeshIdx, Pos, Rot, Scale
0  0.0 0.0 4.0  0.0 0.0 0.0  1.0 1.0 1.0
# Colors for 8 vertices
200 0 0 
0 200 0 
0 0 200 
0 200 200 
200 200 0 
150 0 150 
100 100 100
255 150 55

# --- CAMERA ---
# Pos, Target, Global, FOV
0.0 0.0 -4.0  0.0 0.0 0.0  0.0 1.0 0.0  1.04719
